<svg width="52" height="33" viewBox="0 0 52 33" fill="none" xmlns="http://www.w3.org/2000/svg">
<path d="M11.5 32.4V33H21.2V21.2C21.2 20.1 22.7 19.7 23.2 20.7L24.3 23C25.8 26.1 26.6 29.2 26.6 32.4V33H36.3V21.5C36.3 20.4 37.8 20 38.3 21L39.4 23.4C40.8 26.3 41.5 29.4 41.5 32.4V33H51.2V21.5L49.6 20.2C43.1 14.6 39.7 8.10002 39.7 1.30002V0.800018H30V12.3C30 13.4 28.5 13.8 28 12.8L26.9 10.4C25.5 7.49999 24.8 4.39999 24.8 1.39999V0.899994H15.1V12.6C15.1 13.7 13.6 14.1 13.1 13.1L12 10.8C10.5 7.70002 9.70001 4.59999 9.70001 1.39999V0.899994H0V12.4L1.60001 13.7C8.10001 19.1 11.5 25.7 11.5 32.4Z" fill="white"/>
</svg>
